  0
SECTION
  2
HEADER
999
DXFOUT from Archi-TREND-11
  9
$EXTMIN
 10
25326
 20
23420
  9
$EXTMAX
 10
39463
 20
41087
  9
$LIMMIN
 10
0
 20
0
  9
$LIMMAX
 10
64000
 20
64000
  0
ENDSEC
  0
SECTION
  2
TABLES
  0
TABLE
  2
LTYPE
 70
5
  0
LTYPE
  2
CONTINUOUS
 70
64
  3
é¿ê¸
 72
65
 73
0
 40
0
  0
LTYPE
  2
HIDDEN
 70
64
  3
ì_ê¸
 72
65
 73
2
 40
300
 49
150
 49
-150
  0
LTYPE
  2
CENTER
 70
64
  3
àÍì_çΩê¸
 72
65
 73
4
 40
1000
 49
700
 49
-100
 49
100
 49
-100
  0
LTYPE
  2
PHANTOM
 70
64
  3
ìÒì_çΩê¸
 72
65
 73
6
 40
1000
 49
500
 49
-100
 49
100
 49
-100
 49
100
 49
-100
  0
LTYPE
  2
DASHED
 70
64
  3
îjê¸
 72
65
 73
2
 40
500
 49
400
 49
-100
  0
ENDTAB
  0
TABLE
  2
LAYER
 70
8
  0
LAYER
  2
PEN1
 70
0
 62
3
  6
CONTINUOUS
  0
LAYER
  2
PEN2
 70
0
 62
4
  6
CONTINUOUS
  0
LAYER
  2
PEN3
 70
0
 62
2
  6
CONTINUOUS
  0
LAYER
  2
PEN4
 70
0
 62
7
  6
CONTINUOUS
  0
LAYER
  2
PEN5
 70
0
 62
7
  6
CONTINUOUS
  0
LAYER
  2
PEN6
 70
0
 62
4
  6
CONTINUOUS
  0
LAYER
  2
PEN7
 70
0
 62
3
  6
CONTINUOUS
  0
LAYER
  2
PEN8
 70
0
 62
-3
  6
CONTINUOUS
  0
ENDTAB
  0
TABLE
  2
STYLE
 70
1
  0
STYLE
  2
BIGFONT
 70
64
 40
0.0
 41
1.0
 50
0.0
 71
0
 42
0.2
  3

  4
bigfont
  0
ENDTAB
  0
ENDSEC
  0
SECTION
  2
ENTITIES
  0
LINE
  8
PEN3
 10
26511
 20
25358
 11
26511
 21
25603
  6
CONTINUOUS
  0
LINE
  8
PEN3
 10
26511
 20
28326
 11
26511
 21
29832
  6
CONTINUOUS
  0
LINE
  8
PEN3
 10
29472
 20
24879
 11
26511
 21
25358
  6
CONTINUOUS
  0
LINE
  8
PEN3
 10
31533
 20
29202
 11
31533
 21
25199
  6
CONTINUOUS
  0
LINE
  8
PEN3
 10
31533
 20
25199
 11
30145
 21
24984
  6
CONTINUOUS
  0
LINE
  8
PEN3
 10
31533
 20
25199
 11
31533
 21
29202
  6
CONTINUOUS
  0
LINE
  8
PEN3
 10
34173
 20
29653
 11
34173
 21
24810
  6
CONTINUOUS
  0
LINE
  8
PEN3
 10
34173
 20
24810
 11
31533
 21
25199
  6
CONTINUOUS
  0
LINE
  8
PEN3
 10
34173
 20
24810
 11
34173
 21
29653
  6
CONTINUOUS
  0
LINE
  8
PEN3
 10
38293
 20
29887
 11
38293
 21
25527
  6
CONTINUOUS
  0
LINE
  8
PEN3
 10
38293
 20
25527
 11
34173
 21
24810
  6
CONTINUOUS
  0
LINE
  8
PEN3
 10
30145
 20
29201
 11
30145
 21
24832
  6
CONTINUOUS
  0
LINE
  8
PEN3
 10
30145
 20
24832
 11
29954
 21
24802
  6
CONTINUOUS
  0
LINE
  8
PEN3
 10
29954
 20
24802
 11
29472
 21
24879
  6
CONTINUOUS
  0
LINE
  8
PEN3
 10
26511
 20
25079
 11
26511
 21
25358
  6
CONTINUOUS
  0
LINE
  8
PEN3
 10
29472
 20
24879
 11
29472
 21
24581
  6
CONTINUOUS
  0
LINE
  8
PEN3
 10
29472
 20
24581
 11
26511
 21
25079
  6
CONTINUOUS
  0
LINE
  8
PEN3
 10
30549
 20
24755
 11
30549
 21
24991
  6
CONTINUOUS
  0
LINE
  8
PEN3
 10
30549
 20
24991
 11
31533
 21
25144
  6
CONTINUOUS
  0
LINE
  8
PEN3
 10
29472
 20
24581
 11
29472
 21
24879
  6
CONTINUOUS
  0
LINE
  8
PEN3
 10
31533
 20
25199
 11
31533
 21
25144
  6
CONTINUOUS
  0
LINE
  8
PEN3
 10
30549
 20
24755
 11
30145
 21
24690
  6
CONTINUOUS
  0
LINE
  8
PEN3
 10
33597
 20
24838
 11
33597
 21
24597
  6
CONTINUOUS
  0
LINE
  8
PEN3
 10
31533
 20
25144
 11
33597
 21
24838
  6
CONTINUOUS
  0
LINE
  8
PEN3
 10
31533
 20
25144
 11
31533
 21
25199
  6
CONTINUOUS
  0
LINE
  8
PEN3
 10
34173
 20
24810
 11
34173
 21
24508
  6
CONTINUOUS
  0
LINE
  8
PEN3
 10
34173
 20
24508
 11
33597
 21
24597
  6
CONTINUOUS
  0
LINE
  8
PEN3
 10
34173
 20
24508
 11
34173
 21
24810
  6
CONTINUOUS
  0
LINE
  8
PEN3
 10
38293
 20
25527
 11
38293
 21
25256
  6
CONTINUOUS
  0
LINE
  8
PEN3
 10
38293
 20
25256
 11
34173
 21
24508
  6
CONTINUOUS
  0
LINE
  8
PEN3
 10
29954
 20
24500
 11
29954
 21
24802
  6
CONTINUOUS
  0
LINE
  8
PEN3
 10
30145
 20
24832
 11
30145
 21
24531
  6
CONTINUOUS
  0
LINE
  8
PEN3
 10
30145
 20
24531
 11
29954
 21
24500
  6
CONTINUOUS
  0
LINE
  8
PEN3
 10
29472
 20
24581
 11
29472
 21
24879
  6
CONTINUOUS
  0
LINE
  8
PEN3
 10
29954
 20
24802
 11
29954
 21
24500
  6
CONTINUOUS
  0
LINE
  8
PEN3
 10
29954
 20
24500
 11
29472
 21
24581
  6
CONTINUOUS
  0
LINE
  8
PEN1
 10
28649
 20
25012
 11
28649
 21
24772
  6
CONTINUOUS
  0
LINE
  8
PEN1
 10
28649
 20
24772
 11
28174
 21
24852
  6
CONTINUOUS
  0
LINE
  8
PEN1
 10
28174
 20
24852
 11
28174
 21
25089
  6
CONTINUOUS
  0
LINE
  8
PEN1
 10
28649
 20
24795
 11
28245
 21
24862
  6
CONTINUOUS
  0
LINE
  8
PEN1
 10
28245
 20
24862
 11
28245
 21
25078
  6
CONTINUOUS
  0
LINE
  8
PEN1
 10
28174
 20
24852
 11
28245
 21
24862
  6
CONTINUOUS
  0
LINE
  8
PEN1
 10
28298
 20
24853
 11
28298
 21
25069
  6
CONTINUOUS
  0
LINE
  8
PEN1
 10
28350
 20
24844
 11
28350
 21
25061
  6
CONTINUOUS
  0
LINE
  8
PEN1
 10
28403
 20
24836
 11
28403
 21
25052
  6
CONTINUOUS
  0
LINE
  8
PEN1
 10
28456
 20
24827
 11
28456
 21
25044
  6
CONTINUOUS
  0
LINE
  8
PEN1
 10
28509
 20
24818
 11
28509
 21
25035
  6
CONTINUOUS
  0
LINE
  8
PEN1
 10
28562
 20
24809
 11
28562
 21
25026
  6
CONTINUOUS
  0
LINE
  8
PEN1
 10
28614
 20
24800
 11
28614
 21
25018
  6
CONTINUOUS
  0
LINE
  8
PEN1
 10
35897
 20
25110
 11
35897
 21
24873
  6
CONTINUOUS
  0
LINE
  8
PEN1
 10
35897
 20
24873
 11
35442
 21
24791
  6
CONTINUOUS
  0
LINE
  8
PEN1
 10
35442
 20
24791
 11
35442
 21
25031
  6
CONTINUOUS
  0
LINE
  8
PEN1
 10
35823
 20
25097
 11
35823
 21
24883
  6
CONTINUOUS
  0
LINE
  8
PEN1
 10
35823
 20
24883
 11
35442
 21
24815
  6
CONTINUOUS
  0
LINE
  8
PEN1
 10
35897
 20
24873
 11
35823
 21
24883
  6
CONTINUOUS
  0
LINE
  8
PEN1
 10
35470
 20
24820
 11
35470
 21
25036
  6
CONTINUOUS
  0
LINE
  8
PEN1
 10
35521
 20
24829
 11
35521
 21
25044
  6
CONTINUOUS
  0
LINE
  8
PEN1
 10
35572
 20
24838
 11
35572
 21
25053
  6
CONTINUOUS
  0
LINE
  8
PEN1
 10
35622
 20
24847
 11
35622
 21
25062
  6
CONTINUOUS
  0
LINE
  8
PEN1
 10
35673
 20
24857
 11
35673
 21
25071
  6
CONTINUOUS
  0
LINE
  8
PEN1
 10
35723
 20
24866
 11
35723
 21
25080
  6
CONTINUOUS
  0
LINE
  8
PEN1
 10
35773
 20
24874
 11
35773
 21
25088
  6
CONTINUOUS
  0
LINE
  8
PEN1
 10
38022
 20
25480
 11
38022
 21
25256
  6
CONTINUOUS
  0
LINE
  8
PEN1
 10
38022
 20
25256
 11
37615
 21
25183
  6
CONTINUOUS
  0
LINE
  8
PEN1
 10
37615
 20
25183
 11
37615
 21
25409
  6
CONTINUOUS
  0
LINE
  8
PEN1
 10
37949
 20
25467
 11
37949
 21
25265
  6
CONTINUOUS
  0
LINE
  8
PEN1
 10
37949
 20
25265
 11
37615
 21
25205
  6
CONTINUOUS
  0
LINE
  8
PEN1
 10
38022
 20
25256
 11
37949
 21
25265
  6
CONTINUOUS
  0
LINE
  8
PEN1
 10
37634
 20
25209
 11
37634
 21
25412
  6
CONTINUOUS
  0
LINE
  8
PEN1
 10
37679
 20
25217
 11
37679
 21
25420
  6
CONTINUOUS
  0
LINE
  8
PEN1
 10
37725
 20
25225
 11
37725
 21
25428
  6
CONTINUOUS
  0
LINE
  8
PEN1
 10
37769
 20
25233
 11
37769
 21
25436
  6
CONTINUOUS
  0
LINE
  8
PEN1
 10
37814
 20
25241
 11
37814
 21
25444
  6
CONTINUOUS
  0
LINE
  8
PEN1
 10
37860
 20
25249
 11
37860
 21
25452
  6
CONTINUOUS
  0
LINE
  8
PEN1
 10
37905
 20
25257
 11
37905
 21
25460
  6
CONTINUOUS
  0
LINE
  8
PEN3
 10
29924
 20
29201
 11
34173
 21
29205
  6
CONTINUOUS
  0
LINE
  8
PEN3
 10
29317
 20
25221
 11
27540
 21
25496
  6
CONTINUOUS
  0
LINE
  8
PEN3
 10
27540
 20
25496
 11
27540
 21
28257
  6
CONTINUOUS
  0
LINE
  8
PEN3
 10
27540
 20
28257
 11
29317
 21
28099
  6
CONTINUOUS
  0
LINE
  8
PEN3
 10
29317
 20
28099
 11
29317
 21
25221
  6
CONTINUOUS
  0
LINE
  8
PEN3
 10
27540
 20
25496
 11
27565
 21
25498
  6
CONTINUOUS
  0
LINE
  8
PEN2
 10
29317
 20
25228
 11
27565
 21
25498
  6
CONTINUOUS
  0
LINE
  8
PEN2
 10
27565
 20
25498
 11
27565
 21
28254
  6
CONTINUOUS
  0
LINE
  8
PEN2
 10
29314
 20
25269
 11
27589
 21
25533
  6
CONTINUOUS
  0
LINE
  8
PEN2
 10
27589
 20
25533
 11
27589
 21
28218
  6
CONTINUOUS
  0
LINE
  8
PEN2
 10
27589
 20
28218
 11
29314
 21
28063
  6
CONTINUOUS
  0
LINE
  8
PEN2
 10
29314
 20
28063
 11
29314
 21
25269
  6
CONTINUOUS
  0
LINE
  8
PEN2
 10
29317
 20
28068
 11
29314
 21
28063
  6
CONTINUOUS
  0
LINE
  8
PEN2
 10
27589
 20
28218
 11
27567
 21
28254
  6
CONTINUOUS
  0
LINE
  8
PEN2
 10
29317
 20
25269
 11
29314
 21
25269
  6
CONTINUOUS
  0
LINE
  8
PEN2
 10
27589
 20
25533
 11
27565
 21
25537
  6
CONTINUOUS
  0
LINE
  8
PEN2
 10
27589
 20
25533
 11
27662
 21
25544
  6
CONTINUOUS
  0
LINE
  8
PEN2
 10
27662
 20
28211
 11
27662
 21
25544
  6
CONTINUOUS
  0
LINE
  8
PEN2
 10
27662
 20
25544
 11
29314
 21
25292
  6
CONTINUOUS
  0
LINE
  8
PEN2
 10
28491
 20
28137
 11
28491
 21
25418
  6
CONTINUOUS
  0
LINE
  8
PEN2
 10
28491
 20
25464
 11
27690
 21
25585
  6
CONTINUOUS
  0
LINE
  8
PEN2
 10
27690
 20
25585
 11
27690
 21
28174
  6
CONTINUOUS
  0
LINE
  8
PEN2
 10
27690
 20
28174
 11
28491
 21
28102
  6
CONTINUOUS
  0
LINE
  8
PEN2
 10
28521
 20
28099
 11
29314
 21
28027
  6
CONTINUOUS
  0
LINE
  8
PEN2
 10
29314
 20
25339
 11
28521
 21
25459
  6
CONTINUOUS
  0
LINE
  8
PEN2
 10
28521
 20
25459
 11
28521
 21
28099
  6
CONTINUOUS
  0
LINE
  8
PEN3
 10
38169
 20
27834
 11
37464
 21
27755
  6
CONTINUOUS
  0
LINE
  8
PEN3
 10
37464
 20
27755
 11
37464
 21
28665
  6
CONTINUOUS
  0
LINE
  8
PEN3
 10
37464
 20
28665
 11
38169
 21
28727
  6
CONTINUOUS
  0
LINE
  8
PEN3
 10
38169
 20
28727
 11
38169
 21
27834
  6
CONTINUOUS
  0
LINE
  8
PEN3
 10
38169
 20
27834
 11
38145
 21
27836
  6
CONTINUOUS
  0
LINE
  8
PEN2
 10
38145
 20
27836
 11
37464
 21
27760
  6
CONTINUOUS
  0
LINE
  8
PEN2
 10
38145
 20
28725
 11
38145
 21
27836
  6
CONTINUOUS
  0
LINE
  8
PEN2
 10
38123
 20
27871
 11
37464
 21
27798
  6
CONTINUOUS
  0
LINE
  8
PEN2
 10
37464
 20
28630
 11
38123
 21
28688
  6
CONTINUOUS
  0
LINE
  8
PEN2
 10
38123
 20
28688
 11
38123
 21
27871
  6
CONTINUOUS
  0
LINE
  8
PEN2
 10
38142
 20
28724
 11
38123
 21
28688
  6
CONTINUOUS
  0
LINE
  8
PEN2
 10
38145
 20
27836
 11
38123
 21
27871
  6
CONTINUOUS
  0
LINE
  8
PEN2
 10
38123
 20
27871
 11
38050
 21
27876
  6
CONTINUOUS
  0
LINE
  8
PEN2
 10
37464
 20
27811
 11
38050
 21
27876
  6
CONTINUOUS
  0
LINE
  8
PEN2
 10
38050
 20
27876
 11
38050
 21
28682
  6
CONTINUOUS
  0
LINE
  8
PEN2
 10
37717
 20
28653
 11
37717
 21
27839
  6
CONTINUOUS
  0
LINE
  8
PEN2
 10
37717
 20
27854
 11
37464
 21
27827
  6
CONTINUOUS
  0
LINE
  8
PEN2
 10
37464
 20
28629
 11
37717
 21
28651
  6
CONTINUOUS
  0
LINE
  8
PEN2
 10
37728
 20
28652
 11
38039
 21
28680
  6
CONTINUOUS
  0
LINE
  8
PEN2
 10
38039
 20
28680
 11
38039
 21
27890
  6
CONTINUOUS
  0
LINE
  8
PEN2
 10
38039
 20
27890
 11
37728
 21
27856
  6
CONTINUOUS
  0
LINE
  8
PEN2
 10
37728
 20
27856
 11
37728
 21
28652
  6
CONTINUOUS
  0
LINE
  8
PEN3
 10
36061
 20
27756
 11
35273
 21
27671
  6
CONTINUOUS
  0
LINE
  8
PEN3
 10
35273
 20
27671
 11
35273
 21
29114
  6
CONTINUOUS
  0
LINE
  8
PEN3
 10
35273
 20
29114
 11
36061
 21
29170
  6
CONTINUOUS
  0
LINE
  8
PEN3
 10
36061
 20
29170
 11
36061
 21
27756
  6
CONTINUOUS
  0
LINE
  8
PEN3
 10
36061
 20
27756
 11
36036
 21
27758
  6
CONTINUOUS
  0
LINE
  8
PEN2
 10
36036
 20
27758
 11
35273
 21
27676
  6
CONTINUOUS
  0
LINE
  8
PEN2
 10
36036
 20
29169
 11
36036
 21
27758
  6
CONTINUOUS
  0
LINE
  8
PEN2
 10
36011
 20
27794
 11
35274
 21
27716
  6
CONTINUOUS
  0
LINE
  8
PEN2
 10
35274
 20
27716
 11
35274
 21
29077
  6
CONTINUOUS
  0
LINE
  8
PEN2
 10
35274
 20
29077
 11
36011
 21
29131
  6
CONTINUOUS
  0
LINE
  8
PEN2
 10
36011
 20
29131
 11
36011
 21
27794
  6
CONTINUOUS
  0
LINE
  8
PEN2
 10
36034
 20
29169
 11
36011
 21
29131
  6
CONTINUOUS
  0
LINE
  8
PEN2
 10
35274
 20
29077
 11
35273
 21
29079
  6
CONTINUOUS
  0
LINE
  8
PEN2
 10
36036
 20
27758
 11
36011
 21
27794
  6
CONTINUOUS
  0
LINE
  8
PEN2
 10
35274
 20
27716
 11
35273
 21
27714
  6
CONTINUOUS
  0
LINE
  8
PEN2
 10
36011
 20
27794
 11
35938
 21
27801
  6
CONTINUOUS
  0
LINE
  8
PEN2
 10
35274
 20
27730
 11
35938
 21
27801
  6
CONTINUOUS
  0
LINE
  8
PEN2
 10
35938
 20
27801
 11
35938
 21
29125
  6
CONTINUOUS
  0
LINE
  8
PEN2
 10
35567
 20
29098
 11
35567
 21
27761
  6
CONTINUOUS
  0
LINE
  8
PEN2
 10
35567
 20
27784
 11
35274
 21
27753
  6
CONTINUOUS
  0
LINE
  8
PEN2
 10
35274
 20
29064
 11
35567
 21
29086
  6
CONTINUOUS
  0
LINE
  8
PEN2
 10
35579
 20
29087
 11
35926
 21
29112
  6
CONTINUOUS
  0
LINE
  8
PEN2
 10
35926
 20
29112
 11
35926
 21
27822
  6
CONTINUOUS
  0
LINE
  8
PEN2
 10
35926
 20
27822
 11
35579
 21
27785
  6
CONTINUOUS
  0
LINE
  8
PEN2
 10
35579
 20
27785
 11
35579
 21
29087
  6
CONTINUOUS
  0
LINE
  8
PEN3
 10
32015
 20
25151
 11
32916
 21
25019
  6
CONTINUOUS
  0
LINE
  8
PEN3
 10
32916
 20
25019
 11
32916
 21
28550
  6
CONTINUOUS
  0
LINE
  8
PEN3
 10
32916
 20
28550
 11
32015
 21
28615
  6
CONTINUOUS
  0
LINE
  8
PEN3
 10
32015
 20
28615
 11
32015
 21
25151
  6
CONTINUOUS
  0
LINE
  8
PEN3
 10
32015
 20
25151
 11
32037
 21
25154
  6
CONTINUOUS
  0
LINE
  8
PEN2
 10
32037
 20
25154
 11
32916
 21
25025
  6
CONTINUOUS
  0
LINE
  8
PEN2
 10
32037
 20
28613
 11
32037
 21
25154
  6
CONTINUOUS
  0
LINE
  8
PEN2
 10
32065
 20
25190
 11
32909
 21
25066
  6
CONTINUOUS
  0
LINE
  8
PEN2
 10
32909
 20
25066
 11
32909
 21
28513
  6
CONTINUOUS
  0
LINE
  8
PEN2
 10
32909
 20
28513
 11
32065
 21
28575
  6
CONTINUOUS
  0
LINE
  8
PEN2
 10
32065
 20
28575
 11
32065
 21
25190
  6
CONTINUOUS
  0
LINE
  8
PEN2
 10
32039
 20
28613
 11
32065
 21
28575
  6
CONTINUOUS
  0
LINE
  8
PEN2
 10
32909
 20
28513
 11
32916
 21
28524
  6
CONTINUOUS
  0
LINE
  8
PEN2
 10
32037
 20
25194
 11
32065
 21
25190
  6
CONTINUOUS
  0
LINE
  8
PEN2
 10
32909
 20
25066
 11
32916
 21
25065
  6
CONTINUOUS
  0
LINE
  8
PEN2
 10
32065
 20
25190
 11
32131
 21
25201
  6
CONTINUOUS
  0
LINE
  8
PEN2
 10
32131
 20
28570
 11
32131
 21
25201
  6
CONTINUOUS
  0
LINE
  8
PEN2
 10
32131
 20
25201
 11
32909
 21
25087
  6
CONTINUOUS
  0
LINE
  8
PEN1
 10
32871
 20
25287
 11
32871
 21
26760
  6
CONTINUOUS
  0
LINE
  8
PEN1
 10
32871
 20
26800
 11
32871
 21
28332
  6
CONTINUOUS
  0
LINE
  8
PEN1
 10
32871
 20
28332
 11
32599
 21
28353
  6
CONTINUOUS
  0
LINE
  8
PEN1
 10
32498
 20
28360
 11
32229
 21
28381
  6
CONTINUOUS
  0
LINE
  8
PEN1
 10
32229
 20
28381
 11
32229
 21
25378
  6
CONTINUOUS
  0
LINE
  8
PEN1
 10
32229
 20
25378
 11
32498
 21
25340
  6
CONTINUOUS
  0
LINE
  8
PEN1
 10
32599
 20
25325
 11
32871
 21
25287
  6
CONTINUOUS
  0
LINE
  8
PEN1
 10
32599
 20
28353
 11
32599
 21
25325
  6
CONTINUOUS
  0
LINE
  8
PEN1
 10
32498
 20
28360
 11
32498
 21
25340
  6
CONTINUOUS
  0
LINE
  8
PEN1
 10
32902
 20
27030
 11
32902
 21
26797
  6
CONTINUOUS
  0
LINE
  8
PEN1
 10
32902
 20
26757
 11
32902
 21
26680
  6
CONTINUOUS
  0
LINE
  8
PEN1
 10
32902
 20
26680
 11
32909
 21
26679
  6
CONTINUOUS
  0
LINE
  8
PEN1
 10
32909
 20
27029
 11
32902
 21
27030
  6
CONTINUOUS
  0
LINE
  8
PEN1
 10
32909
 20
26756
 11
32806
 21
26768
  6
CONTINUOUS
  0
LINE
  8
PEN1
 10
32909
 20
26796
 11
32806
 21
26808
  6
CONTINUOUS
  0
LINE
  8
PEN1
 10
32806
 20
26808
 11
32806
 21
26768
  6
CONTINUOUS
  0
LINE
  8
PEN3
 10
33597
 20
24838
 11
32616
 21
24670
  6
CONTINUOUS
  0
LINE
  8
PEN3
 10
32616
 20
24420
 11
33607
 21
24595
  6
CONTINUOUS
  0
LINE
  8
PEN3
 10
32616
 20
24420
 11
32616
 21
24670
  6
CONTINUOUS
  0
LINE
  8
PEN3
 10
32616
 20
24670
 11
30549
 21
24991
  6
CONTINUOUS
  0
LINE
  8
PEN3
 10
30539
 20
24753
 11
32616
 21
24420
  6
CONTINUOUS
  0
LINE
  8
PEN2
 10
26492
 20
25645
 11
26492
 21
28282
  6
CONTINUOUS
  0
LINE
  8
PEN2
 10
26492
 20
28282
 11
27335
 21
28206
  6
CONTINUOUS
  0
LINE
  8
PEN2
 10
27335
 20
28206
 11
27335
 21
25514
  6
CONTINUOUS
  0
LINE
  8
PEN2
 10
27335
 20
25514
 11
26492
 21
25645
  6
CONTINUOUS
  0
LINE
  8
PEN2
 10
27335
 20
25657
 11
26492
 21
25784
  6
CONTINUOUS
  0
LINE
  8
PEN2
 10
27335
 20
25798
 11
26492
 21
25922
  6
CONTINUOUS
  0
LINE
  8
PEN2
 10
27335
 20
25940
 11
26492
 21
26062
  6
CONTINUOUS
  0
LINE
  8
PEN2
 10
27335
 20
26081
 11
26492
 21
26200
  6
CONTINUOUS
  0
LINE
  8
PEN2
 10
27335
 20
26223
 11
26492
 21
26339
  6
CONTINUOUS
  0
LINE
  8
PEN2
 10
27335
 20
26364
 11
26492
 21
26477
  6
CONTINUOUS
  0
LINE
  8
PEN2
 10
27335
 20
26506
 11
26492
 21
26617
  6
CONTINUOUS
  0
LINE
  8
PEN2
 10
27335
 20
26647
 11
26492
 21
26755
  6
CONTINUOUS
  0
LINE
  8
PEN2
 10
27335
 20
26790
 11
26492
 21
26894
  6
CONTINUOUS
  0
LINE
  8
PEN2
 10
27335
 20
26930
 11
26492
 21
27032
  6
CONTINUOUS
  0
LINE
  8
PEN2
 10
27335
 20
27073
 11
26492
 21
27172
  6
CONTINUOUS
  0
LINE
  8
PEN2
 10
27335
 20
27214
 11
26492
 21
27310
  6
CONTINUOUS
  0
LINE
  8
PEN2
 10
27335
 20
27356
 11
26492
 21
27449
  6
CONTINUOUS
  0
LINE
  8
PEN2
 10
27335
 20
27497
 11
26492
 21
27587
  6
CONTINUOUS
  0
LINE
  8
PEN2
 10
27335
 20
27639
 11
26492
 21
27727
  6
CONTINUOUS
  0
LINE
  8
PEN2
 10
27335
 20
27780
 11
26492
 21
27865
  6
CONTINUOUS
  0
LINE
  8
PEN2
 10
27335
 20
27922
 11
26492
 21
28004
  6
CONTINUOUS
  0
LINE
  8
PEN2
 10
27335
 20
28063
 11
26492
 21
28142
  6
CONTINUOUS
  0
LINE
  8
PEN2
 10
26467
 20
25610
 11
27361
 21
25471
  6
CONTINUOUS
  0
LINE
  8
PEN2
 10
27540
 20
25496
 11
27540
 21
28257
  6
CONTINUOUS
  0
LINE
  8
PEN2
 10
27540
 20
28257
 11
27361
 21
28242
  6
CONTINUOUS
  0
LINE
  8
PEN2
 10
27361
 20
28242
 11
27361
 21
25471
  6
CONTINUOUS
  0
LINE
  8
PEN2
 10
27361
 20
25471
 11
27540
 21
25496
  6
CONTINUOUS
  0
LINE
  8
PEN2
 10
26647
 20
28336
 11
26467
 21
28322
  6
CONTINUOUS
  0
LINE
  8
PEN2
 10
26467
 20
28322
 11
26467
 21
25610
  6
CONTINUOUS
  0
LINE
  8
PEN2
 10
27540
 20
28257
 11
26647
 21
28336
  6
CONTINUOUS
  0
LINE
  8
PEN2
 10
26467
 20
28322
 11
27361
 21
28242
  6
CONTINUOUS
  0
LINE
  8
PEN3
 10
26511
 20
29832
 11
26511
 21
29852
  6
CONTINUOUS
  0
LINE
  8
PEN3
 10
26511
 20
32920
 11
26511
 21
34092
  6
CONTINUOUS
  0
LINE
  8
PEN3
 10
29924
 20
34266
 11
29924
 21
29652
  6
CONTINUOUS
  0
LINE
  8
PEN3
 10
29924
 20
24807
 11
29924
 21
34266
  6
CONTINUOUS
  0
LINE
  8
PEN3
 10
34173
 20
34265
 11
34173
 21
29653
  6
CONTINUOUS
  0
LINE
  8
PEN3
 10
34173
 20
29653
 11
34173
 21
35867
  6
CONTINUOUS
  0
LINE
  8
PEN3
 10
38293
 20
34039
 11
38293
 21
29887
  6
CONTINUOUS
  0
LINE
  8
PEN3
 10
35273
 20
32160
 11
36061
 21
32157
  6
CONTINUOUS
  0
LINE
  8
PEN3
 10
36061
 20
32157
 11
36061
 21
33572
  6
CONTINUOUS
  0
LINE
  8
PEN3
 10
36061
 20
33572
 11
35273
 21
33603
  6
CONTINUOUS
  0
LINE
  8
PEN3
 10
35273
 20
33603
 11
35273
 21
32160
  6
CONTINUOUS
  0
LINE
  8
PEN3
 10
36061
 20
33572
 11
36036
 21
33571
  6
CONTINUOUS
  0
LINE
  8
PEN2
 10
36036
 20
32157
 11
36036
 21
33571
  6
CONTINUOUS
  0
LINE
  8
PEN2
 10
36036
 20
33571
 11
35273
 21
33602
  6
CONTINUOUS
  0
LINE
  8
PEN2
 10
35274
 20
32200
 11
36011
 21
32197
  6
CONTINUOUS
  0
LINE
  8
PEN2
 10
36011
 20
32197
 11
36011
 21
33533
  6
CONTINUOUS
  0
LINE
  8
PEN2
 10
36011
 20
33533
 11
35274
 21
33562
  6
CONTINUOUS
  0
LINE
  8
PEN2
 10
35274
 20
33562
 11
35274
 21
32200
  6
CONTINUOUS
  0
LINE
  8
PEN2
 10
35273
 20
33563
 11
35274
 21
33562
  6
CONTINUOUS
  0
LINE
  8
PEN2
 10
36011
 20
33533
 11
36036
 21
33571
  6
CONTINUOUS
  0
LINE
  8
PEN2
 10
35273
 20
32199
 11
35274
 21
32200
  6
CONTINUOUS
  0
LINE
  8
PEN2
 10
36011
 20
32197
 11
36036
 21
32157
  6
CONTINUOUS
  0
LINE
  8
PEN2
 10
36011
 20
33533
 11
35938
 21
33531
  6
CONTINUOUS
  0
LINE
  8
PEN2
 10
35938
 20
32197
 11
35938
 21
33531
  6
CONTINUOUS
  0
LINE
  8
PEN2
 10
35938
 20
33531
 11
35274
 21
33557
  6
CONTINUOUS
  0
LINE
  8
PEN2
 10
35567
 20
33546
 11
35567
 21
32199
  6
CONTINUOUS
  0
LINE
  8
PEN2
 10
35567
 20
32221
 11
35274
 21
32223
  6
CONTINUOUS
  0
LINE
  8
PEN2
 10
35274
 20
33533
 11
35567
 21
33522
  6
CONTINUOUS
  0
LINE
  8
PEN2
 10
35579
 20
33521
 11
35926
 21
33508
  6
CONTINUOUS
  0
LINE
  8
PEN2
 10
35926
 20
33508
 11
35926
 21
32219
  6
CONTINUOUS
  0
LINE
  8
PEN2
 10
35926
 20
32219
 11
35579
 21
32221
  6
CONTINUOUS
  0
LINE
  8
PEN2
 10
35579
 20
32221
 11
35579
 21
33521
  6
CONTINUOUS
  0
LINE
  8
PEN3
 10
28827
 20
29910
 11
27540
 21
29972
  6
CONTINUOUS
  0
LINE
  8
PEN3
 10
27540
 20
29972
 11
27540
 21
31436
  6
CONTINUOUS
  0
LINE
  8
PEN3
 10
27540
 20
31532
 11
27540
 21
33092
  6
CONTINUOUS
  0
LINE
  8
PEN3
 10
27540
 20
33092
 11
28827
 21
33125
  6
CONTINUOUS
  0
LINE
  8
PEN3
 10
28827
 20
33125
 11
28827
 21
31518
  6
CONTINUOUS
  0
LINE
  8
PEN3
 10
28827
 20
31419
 11
28827
 21
29910
  6
CONTINUOUS
  0
LINE
  8
PEN3
 10
27540
 20
29972
 11
27565
 21
29973
  6
CONTINUOUS
  0
LINE
  8
PEN3
 10
27540
 20
33092
 11
27565
 21
33091
  6
CONTINUOUS
  0
LINE
  8
PEN2
 10
28876
 20
29909
 11
27565
 21
29973
  6
CONTINUOUS
  0
LINE
  8
PEN2
 10
27565
 20
29973
 11
27565
 21
31436
  6
CONTINUOUS
  0
LINE
  8
PEN2
 10
27565
 20
31532
 11
27565
 21
33091
  6
CONTINUOUS
  0
LINE
  8
PEN2
 10
27565
 20
33091
 11
28827
 21
33124
  6
CONTINUOUS
  0
LINE
  8
PEN2
 10
28823
 20
29952
 11
27589
 21
30011
  6
CONTINUOUS
  0
LINE
  8
PEN2
 10
27589
 20
30011
 11
27589
 21
31436
  6
CONTINUOUS
  0
LINE
  8
PEN2
 10
27589
 20
31531
 11
27589
 21
33053
  6
CONTINUOUS
  0
LINE
  8
PEN2
 10
27589
 20
33053
 11
28823
 21
33083
  6
CONTINUOUS
  0
LINE
  8
PEN2
 10
28823
 20
33083
 11
28823
 21
31518
  6
CONTINUOUS
  0
LINE
  8
PEN2
 10
28823
 20
31419
 11
28823
 21
29952
  6
CONTINUOUS
  0
LINE
  8
PEN2
 10
28827
 20
33088
 11
28823
 21
33083
  6
CONTINUOUS
  0
LINE
  8
PEN2
 10
27589
 20
33053
 11
27565
 21
33091
  6
CONTINUOUS
  0
LINE
  8
PEN2
 10
28827
 20
29952
 11
28823
 21
29952
  6
CONTINUOUS
  0
LINE
  8
PEN2
 10
27589
 20
30011
 11
27565
 21
30012
  6
CONTINUOUS
  0
LINE
  8
PEN2
 10
27589
 20
30011
 11
27662
 21
30013
  6
CONTINUOUS
  0
LINE
  8
PEN2
 10
27589
 20
33053
 11
27662
 21
33051
  6
CONTINUOUS
  0
LINE
  8
PEN2
 10
27662
 20
33051
 11
27662
 21
31530
  6
CONTINUOUS
  0
LINE
  8
PEN2
 10
27662
 20
31435
 11
27662
 21
30013
  6
CONTINUOUS
  0
LINE
  8
PEN2
 10
27662
 20
30013
 11
28823
 21
29959
  6
CONTINUOUS
  0
LINE
  8
PEN2
 10
28823
 20
33080
 11
27662
 21
33051
  6
CONTINUOUS
  0
LINE
  8
PEN2
 10
28259
 20
33066
 11
28259
 21
31524
  6
CONTINUOUS
  0
LINE
  8
PEN2
 10
28259
 20
31427
 11
28259
 21
29985
  6
CONTINUOUS
  0
LINE
  8
PEN2
 10
28259
 20
30038
 11
27682
 21
30064
  6
CONTINUOUS
  0
LINE
  8
PEN2
 10
27682
 20
30064
 11
27682
 21
31434
  6
CONTINUOUS
  0
LINE
  8
PEN2
 10
27682
 20
31530
 11
27682
 21
33000
  6
CONTINUOUS
  0
LINE
  8
PEN2
 10
27682
 20
33000
 11
28259
 21
33014
  6
CONTINUOUS
  0
LINE
  8
PEN2
 10
28280
 20
33014
 11
28823
 21
33027
  6
CONTINUOUS
  0
LINE
  8
PEN2
 10
28823
 20
30012
 11
28280
 21
30037
  6
CONTINUOUS
  0
LINE
  8
PEN2
 10
28280
 20
30037
 11
28280
 21
31426
  6
CONTINUOUS
  0
LINE
  8
PEN2
 10
28280
 20
31524
 11
28280
 21
33014
  6
CONTINUOUS
  0
LINE
  8
PEN2
 10
28944
 20
31419
 11
28872
 21
31419
  6
CONTINUOUS
  0
LINE
  8
PEN2
 10
28872
 20
31419
 11
27457
 21
31437
  6
CONTINUOUS
  0
LINE
  8
PEN2
 10
27457
 20
31437
 11
27457
 21
31531
  6
CONTINUOUS
  0
LINE
  8
PEN2
 10
27457
 20
31531
 11
28872
 21
31515
  6
CONTINUOUS
  0
LINE
  8
PEN2
 10
28872
 20
31515
 11
28872
 21
31419
  6
CONTINUOUS
  0
LINE
  8
PEN2
 10
28944
 20
31419
 11
28872
 21
31420
  6
CONTINUOUS
  0
LINE
  8
PEN2
 10
27528
 20
31532
 11
28944
 21
31516
  6
CONTINUOUS
  0
LINE
  8
PEN2
 10
28944
 20
31516
 11
28944
 21
31419
  6
CONTINUOUS
  0
LINE
  8
PEN2
 10
27457
 20
31531
 11
27528
 21
31532
  6
CONTINUOUS
  0
LINE
  8
PEN2
 10
28944
 20
31516
 11
28872
 21
31515
  6
CONTINUOUS
  0
LINE
  8
PEN2
 10
28876
 20
29662
 11
28876
 21
31419
  6
CONTINUOUS
  0
LINE
  8
PEN2
 10
28722
 20
29670
 11
28722
 21
31421
  6
CONTINUOUS
  0
LINE
  8
PEN2
 10
28567
 20
29678
 11
28567
 21
29971
  6
CONTINUOUS
  0
LINE
  8
PEN2
 10
28415
 20
29686
 11
28415
 21
31425
  6
CONTINUOUS
  0
LINE
  8
PEN2
 10
28264
 20
29695
 11
28264
 21
31427
  6
CONTINUOUS
  0
LINE
  8
PEN2
 10
28113
 20
29703
 11
28113
 21
31429
  6
CONTINUOUS
  0
LINE
  8
PEN2
 10
27964
 20
29711
 11
27964
 21
31431
  6
CONTINUOUS
  0
LINE
  8
PEN2
 10
27817
 20
29719
 11
27817
 21
31433
  6
CONTINUOUS
  0
LINE
  8
PEN2
 10
27669
 20
29727
 11
27669
 21
31435
  6
CONTINUOUS
  0
LINE
  8
PEN2
 10
27523
 20
29734
 11
27523
 21
31437
  6
CONTINUOUS
  0
LINE
  8
PEN2
 10
31522
 20
31259
 11
30534
 21
31259
  6
CONTINUOUS
  0
LINE
  8
PEN2
 10
30534
 20
31259
 11
30534
 21
32989
  6
CONTINUOUS
  0
LINE
  8
PEN2
 10
30534
 20
32989
 11
31522
 21
32988
  6
CONTINUOUS
  0
LINE
  8
PEN2
 10
31522
 20
32988
 11
31522
 21
31259
  6
CONTINUOUS
  0
LINE
  8
PEN2
 10
31480
 20
31300
 11
30576
 21
31300
  6
CONTINUOUS
  0
LINE
  8
PEN2
 10
30576
 20
31300
 11
30576
 21
32947
  6
CONTINUOUS
  0
LINE
  8
PEN2
 10
30576
 20
32947
 11
31480
 21
32947
  6
CONTINUOUS
  0
LINE
  8
PEN2
 10
31480
 20
32947
 11
31480
 21
31300
  6
CONTINUOUS
  0
LINE
  8
PEN2
 10
31480
 20
32099
 11
30576
 21
32099
  6
CONTINUOUS
  0
LINE
  8
PEN2
 10
31432
 20
32148
 11
30625
 21
32148
  6
CONTINUOUS
  0
LINE
  8
PEN2
 10
30625
 20
32148
 11
30625
 21
32898
  6
CONTINUOUS
  0
LINE
  8
PEN2
 10
30625
 20
32898
 11
31432
 21
32898
  6
CONTINUOUS
  0
LINE
  8
PEN2
 10
31432
 20
32898
 11
31432
 21
32148
  6
CONTINUOUS
  0
LINE
  8
PEN2
 10
31432
 20
31349
 11
30625
 21
31349
  6
CONTINUOUS
  0
LINE
  8
PEN2
 10
30625
 20
31349
 11
30625
 21
32099
  6
CONTINUOUS
  0
LINE
  8
PEN2
 10
30625
 20
32099
 11
31432
 21
32099
  6
CONTINUOUS
  0
LINE
  8
PEN2
 10
31432
 20
32099
 11
31432
 21
31349
  6
CONTINUOUS
  0
LINE
  8
PEN2
 10
26492
 20
29892
 11
26492
 21
32882
  6
CONTINUOUS
  0
LINE
  8
PEN2
 10
26492
 20
32882
 11
27335
 21
32900
  6
CONTINUOUS
  0
LINE
  8
PEN2
 10
27335
 20
32900
 11
27335
 21
29849
  6
CONTINUOUS
  0
LINE
  8
PEN2
 10
27335
 20
29849
 11
26492
 21
29892
  6
CONTINUOUS
  0
LINE
  8
PEN2
 10
27335
 20
29988
 11
26492
 21
30028
  6
CONTINUOUS
  0
LINE
  8
PEN2
 10
27335
 20
30125
 11
26492
 21
30163
  6
CONTINUOUS
  0
LINE
  8
PEN2
 10
27335
 20
30265
 11
26492
 21
30300
  6
CONTINUOUS
  0
LINE
  8
PEN2
 10
27335
 20
30404
 11
26492
 21
30436
  6
CONTINUOUS
  0
LINE
  8
PEN2
 10
27335
 20
30542
 11
26492
 21
30571
  6
CONTINUOUS
  0
LINE
  8
PEN2
 10
27335
 20
30681
 11
26492
 21
30707
  6
CONTINUOUS
  0
LINE
  8
PEN2
 10
27335
 20
30819
 11
26492
 21
30842
  6
CONTINUOUS
  0
LINE
  8
PEN2
 10
27335
 20
30958
 11
26492
 21
30979
  6
CONTINUOUS
  0
LINE
  8
PEN2
 10
27335
 20
31097
 11
26492
 21
31115
  6
CONTINUOUS
  0
LINE
  8
PEN2
 10
27335
 20
31235
 11
26492
 21
31250
  6
CONTINUOUS
  0
LINE
  8
PEN2
 10
27335
 20
31374
 11
26492
 21
31387
  6
CONTINUOUS
  0
LINE
  8
PEN2
 10
27335
 20
31513
 11
26492
 21
31523
  6
CONTINUOUS
  0
LINE
  8
PEN2
 10
27335
 20
31651
 11
26492
 21
31658
  6
CONTINUOUS
  0
LINE
  8
PEN2
 10
27335
 20
31790
 11
26492
 21
31795
  6
CONTINUOUS
  0
LINE
  8
PEN2
 10
27335
 20
31930
 11
26492
 21
31931
  6
CONTINUOUS
  0
LINE
  8
PEN2
 10
27335
 20
32067
 11
26492
 21
32066
  6
CONTINUOUS
  0
LINE
  8
PEN2
 10
27335
 20
32207
 11
26492
 21
32202
  6
CONTINUOUS
  0
LINE
  8
PEN2
 10
27335
 20
32344
 11
26492
 21
32337
  6
CONTINUOUS
  0
LINE
  8
PEN2
 10
27335
 20
32483
 11
26492
 21
32474
  6
CONTINUOUS
  0
LINE
  8
PEN2
 10
27335
 20
32623
 11
26492
 21
32610
  6
CONTINUOUS
  0
LINE
  8
PEN2
 10
27335
 20
32760
 11
26492
 21
32745
  6
CONTINUOUS
  0
LINE
  8
PEN2
 10
26467
 20
29855
 11
27361
 21
29808
  6
CONTINUOUS
  0
LINE
  8
PEN2
 10
27540
 20
29816
 11
27540
 21
31436
  6
CONTINUOUS
  0
LINE
  8
PEN2
 10
27540
 20
31532
 11
27540
 21
32936
  6
CONTINUOUS
  0
LINE
  8
PEN2
 10
27540
 20
32936
 11
27361
 21
32939
  6
CONTINUOUS
  0
LINE
  8
PEN2
 10
27361
 20
32939
 11
27361
 21
29808
  6
CONTINUOUS
  0
LINE
  8
PEN2
 10
27361
 20
29808
 11
27540
 21
29816
  6
CONTINUOUS
  0
LINE
  8
PEN2
 10
26467
 20
32919
 11
26467
 21
29855
  6
CONTINUOUS
  0
LINE
  8
PEN2
 10
26467
 20
32919
 11
27361
 21
32939
  6
CONTINUOUS
  0
LINE
  8
PEN3
 10
26511
 20
38040
 11
26403
 21
38054
  6
CONTINUOUS
  0
LINE
  8
PEN3
 10
26384
 20
38353
 11
26403
 21
38351
  6
CONTINUOUS
  0
LINE
  8
PEN3
 10
29905
 20
38571
 11
26403
 21
38054
  6
CONTINUOUS
  0
LINE
  8
PEN3
 10
26403
 20
38054
 11
26403
 21
38356
  6
CONTINUOUS
  0
LINE
  8
PEN3
 10
26384
 20
38353
 11
26326
 21
38436
  6
CONTINUOUS
  0
LINE
  8
PEN3
 10
26326
 20
38436
 11
29886
 21
38996
  6
CONTINUOUS
  0
LINE
  8
PEN3
 10
26384
 20
38353
 11
29949
 21
38906
  6
CONTINUOUS
  0
LINE
  8
PEN3
 10
31027
 20
39396
 11
31042
 21
40087
  6
CONTINUOUS
  0
LINE
  8
PEN3
 10
31042
 20
40087
 11
26326
 21
38436
  6
CONTINUOUS
  0
LINE
  8
PEN3
 10
29905
 20
38899
 11
29905
 21
38571
  6
CONTINUOUS
  0
LINE
  8
PEN3
 10
29905
 20
38571
 11
31027
 21
38964
  6
CONTINUOUS
  0
LINE
  8
PEN3
 10
31027
 20
38964
 11
31027
 21
39285
  6
CONTINUOUS
  0
LINE
  8
PEN3
 10
31027
 20
39285
 11
29949
 21
38906
  6
CONTINUOUS
  0
LINE
  8
PEN3
 10
29886
 20
38996
 11
29949
 21
38906
  6
CONTINUOUS
  0
LINE
  8
PEN3
 10
31027
 20
39285
 11
31027
 21
39396
  6
CONTINUOUS
  0
LINE
  8
PEN3
 10
31027
 20
39396
 11
29886
 21
38996
  6
CONTINUOUS
  0
LINE
  8
PEN1
 10
29764
 20
38976
 11
30902
 21
39376
  6
CONTINUOUS
  0
LINE
  8
PEN1
 10
30902
 20
39376
 11
30926
 21
40028
  6
CONTINUOUS
  0
LINE
  8
PEN1
 10
30926
 20
40028
 11
26430
 21
38452
  6
CONTINUOUS
  0
LINE
  8
PEN1
 10
30364
 20
39830
 11
30923
 21
39927
  6
CONTINUOUS
  0
LINE
  8
PEN1
 10
29803
 20
39633
 11
30919
 21
39825
  6
CONTINUOUS
  0
LINE
  8
PEN1
 10
29240
 20
39437
 11
30915
 21
39721
  6
CONTINUOUS
  0
LINE
  8
PEN1
 10
28679
 20
39240
 11
30911
 21
39614
  6
CONTINUOUS
  0
LINE
  8
PEN1
 10
28117
 20
39042
 11
30906
 21
39502
  6
CONTINUOUS
  0
LINE
  8
PEN1
 10
27555
 20
38846
 11
30903
 21
39389
  6
CONTINUOUS
  0
LINE
  8
PEN1
 10
26992
 20
38649
 11
30372
 21
39189
  6
CONTINUOUS
  0
LINE
  8
PEN3
 10
32147
 20
38893
 11
32147
 21
38565
  6
CONTINUOUS
  0
LINE
  8
PEN3
 10
32147
 20
38565
 11
34048
 21
38277
  6
CONTINUOUS
  0
LINE
  8
PEN3
 10
37393
 20
38114
 11
34037
 21
38653
  6
CONTINUOUS
  0
LINE
  8
PEN3
 10
34037
 20
38653
 11
34017
 21
38596
  6
CONTINUOUS
  0
LINE
  8
PEN3
 10
32166
 20
38989
 11
32103
 21
38900
  6
CONTINUOUS
  0
LINE
  8
PEN3
 10
37393
 20
38114
 11
37405
 21
38144
  6
CONTINUOUS
  0
LINE
  8
PEN3
 10
37405
 20
38144
 11
32166
 21
38989
  6
CONTINUOUS
  0
LINE
  8
PEN3
 10
34017
 20
38596
 11
32103
 21
38900
  6
CONTINUOUS
  0
LINE
  8
PEN3
 10
37405
 20
38144
 11
34969
 21
39372
  6
CONTINUOUS
  0
LINE
  8
PEN3
 10
34969
 20
39372
 11
31042
 21
40087
  6
CONTINUOUS
  0
LINE
  8
PEN3
 10
31042
 20
40087
 11
31027
 21
39396
  6
CONTINUOUS
  0
LINE
  8
PEN3
 10
32147
 20
38565
 11
31027
 21
38964
  6
CONTINUOUS
  0
LINE
  8
PEN3
 10
31027
 20
38964
 11
31027
 21
39285
  6
CONTINUOUS
  0
LINE
  8
PEN3
 10
31027
 20
39285
 11
32103
 21
38900
  6
CONTINUOUS
  0
LINE
  8
PEN3
 10
31027
 20
39285
 11
31027
 21
39396
  6
CONTINUOUS
  0
LINE
  8
PEN3
 10
31027
 20
39396
 11
32166
 21
38989
  6
CONTINUOUS
  0
LINE
  8
PEN1
 10
37334
 20
38155
 11
34974
 21
39348
  6
CONTINUOUS
  0
LINE
  8
PEN1
 10
34974
 20
39348
 11
31158
 21
40041
  6
CONTINUOUS
  0
LINE
  8
PEN1
 10
31158
 20
40041
 11
31152
 21
39375
  6
CONTINUOUS
  0
LINE
  8
PEN1
 10
31152
 20
39375
 11
32289
 21
38969
  6
CONTINUOUS
  0
LINE
  8
PEN1
 10
31157
 20
39939
 11
35257
 21
39204
  6
CONTINUOUS
  0
LINE
  8
PEN1
 10
31156
 20
39835
 11
35544
 21
39059
  6
CONTINUOUS
  0
LINE
  8
PEN1
 10
31156
 20
39729
 11
35834
 21
38913
  6
CONTINUOUS
  0
LINE
  8
PEN1
 10
31154
 20
39621
 11
36126
 21
38765
  6
CONTINUOUS
  0
LINE
  8
PEN1
 10
31153
 20
39508
 11
36423
 21
38615
  6
CONTINUOUS
  0
LINE
  8
PEN1
 10
31152
 20
39393
 11
36723
 21
38464
  6
CONTINUOUS
  0
LINE
  8
PEN1
 10
31672
 20
39189
 11
37027
 21
38310
  6
CONTINUOUS
  0
LINE
  8
PEN3
 10
35138
 20
36874
 11
35138
 21
36409
  6
CONTINUOUS
  0
LINE
  8
PEN3
 10
35138
 20
36409
 11
38397
 21
36053
  6
CONTINUOUS
  0
LINE
  8
PEN3
 10
38397
 20
36053
 11
38397
 21
36480
  6
CONTINUOUS
  0
LINE
  8
PEN3
 10
38397
 20
36480
 11
35138
 21
36874
  6
CONTINUOUS
  0
LINE
  8
PEN3
 10
35138
 20
36409
 11
34048
 21
38087
  6
CONTINUOUS
  0
LINE
  8
PEN3
 10
34048
 20
38087
 11
34048
 21
38484
  6
CONTINUOUS
  0
LINE
  8
PEN3
 10
38406
 20
36515
 11
35070
 21
36921
  6
CONTINUOUS
  0
LINE
  8
PEN3
 10
35128
 20
36987
 11
35070
 21
36921
  6
CONTINUOUS
  0
LINE
  8
PEN3
 10
38406
 20
36515
 11
38463
 21
36574
  6
CONTINUOUS
  0
LINE
  8
PEN3
 10
38463
 20
36574
 11
35128
 21
36987
  6
CONTINUOUS
  0
LINE
  8
PEN3
 10
38463
 20
36574
 11
37393
 21
38114
  6
CONTINUOUS
  0
LINE
  8
PEN3
 10
34006
 20
38548
 11
35070
 21
36921
  6
CONTINUOUS
  0
LINE
  8
PEN3
 10
34006
 20
38548
 11
34006
 21
38597
  6
CONTINUOUS
  0
LINE
  8
PEN3
 10
34037
 20
38653
 11
35128
 21
36987
  6
CONTINUOUS
  0
LINE
  8
PEN1
 10
38392
 20
36583
 11
37350
 21
38086
  6
CONTINUOUS
  0
LINE
  8
PEN1
 10
37350
 20
38086
 11
34149
 21
38597
  6
CONTINUOUS
  0
LINE
  8
PEN1
 10
34149
 20
38597
 11
35211
 21
36976
  6
CONTINUOUS
  0
LINE
  8
PEN1
 10
34358
 20
38278
 11
37555
 21
37790
  6
CONTINUOUS
  0
LINE
  8
PEN1
 10
34568
 20
37956
 11
37762
 21
37491
  6
CONTINUOUS
  0
LINE
  8
PEN1
 10
34781
 20
37632
 11
37971
 21
37190
  6
CONTINUOUS
  0
LINE
  8
PEN1
 10
34995
 20
37306
 11
38181
 21
36889
  6
CONTINUOUS
  0
LINE
  8
PEN3
 10
26511
 20
34092
 11
26511
 21
38069
  6
CONTINUOUS
  0
LINE
  8
PEN3
 10
29924
 20
38577
 11
29924
 21
34266
  6
CONTINUOUS
  0
LINE
  8
PEN3
 10
29924
 20
34266
 11
29924
 21
38577
  6
CONTINUOUS
  0
LINE
  8
PEN3
 10
32130
 20
38571
 11
32130
 21
36200
  6
CONTINUOUS
  0
LINE
  8
PEN3
 10
32130
 20
36117
 11
32130
 21
35870
  6
CONTINUOUS
  0
LINE
  8
PEN3
 10
32218
 20
36108
 11
32218
 21
36117
  6
CONTINUOUS
  0
LINE
  8
PEN3
 10
32130
 20
35870
 11
32130
 21
36117
  6
CONTINUOUS
  0
LINE
  8
PEN3
 10
32130
 20
36200
 11
32130
 21
38571
  6
CONTINUOUS
  0
LINE
  8
PEN3
 10
34041
 20
38278
 11
34041
 21
36196
  6
CONTINUOUS
  0
LINE
  8
PEN3
 10
34041
 20
36105
 11
34041
 21
35867
  6
CONTINUOUS
  0
LINE
  8
PEN3
 10
35030
 20
36028
 11
35030
 21
36015
  6
CONTINUOUS
  0
LINE
  8
PEN3
 10
35104
 20
36101
 11
35104
 21
36021
  6
CONTINUOUS
  0
LINE
  8
PEN3
 10
34041
 20
35867
 11
34041
 21
36105
  6
CONTINUOUS
  0
LINE
  8
PEN3
 10
34041
 20
36196
 11
34041
 21
38278
  6
CONTINUOUS
  0
LINE
  8
PEN3
 10
35128
 20
35778
 11
35128
 21
36424
  6
CONTINUOUS
  0
LINE
  8
PEN3
 10
38293
 20
36064
 11
38293
 21
34039
  6
CONTINUOUS
  0
LINE
  8
PEN3
 10
32236
 20
35870
 11
32236
 21
36108
  6
CONTINUOUS
  0
LINE
  8
PEN3
 10
32236
 20
36199
 11
32236
 21
37585
  6
CONTINUOUS
  0
LINE
  8
PEN3
 10
32236
 20
37585
 11
34062
 21
37349
  6
CONTINUOUS
  0
LINE
  8
PEN3
 10
34062
 20
37349
 11
34062
 21
36196
  6
CONTINUOUS
  0
LINE
  8
PEN3
 10
34062
 20
36105
 11
34062
 21
35867
  6
CONTINUOUS
  0
LINE
  8
PEN3
 10
34062
 20
37349
 11
34038
 21
37346
  6
CONTINUOUS
  0
LINE
  8
PEN2
 10
32236
 20
37578
 11
34038
 21
37346
  6
CONTINUOUS
  0
LINE
  8
PEN2
 10
34038
 20
37346
 11
34038
 21
36196
  6
CONTINUOUS
  0
LINE
  8
PEN2
 10
34038
 20
36105
 11
34038
 21
35867
  6
CONTINUOUS
  0
LINE
  8
PEN2
 10
32240
 20
35870
 11
32240
 21
36108
  6
CONTINUOUS
  0
LINE
  8
PEN2
 10
32240
 20
36199
 11
32240
 21
37537
  6
CONTINUOUS
  0
LINE
  8
PEN2
 10
32240
 20
37537
 11
34012
 21
37310
  6
CONTINUOUS
  0
LINE
  8
PEN2
 10
34012
 20
37310
 11
34012
 21
36196
  6
CONTINUOUS
  0
LINE
  8
PEN2
 10
34012
 20
36105
 11
34012
 21
35867
  6
CONTINUOUS
  0
LINE
  8
PEN2
 10
34038
 20
37346
 11
34012
 21
37310
  6
CONTINUOUS
  0
LINE
  8
PEN2
 10
32240
 20
37537
 11
32236
 21
37545
  6
CONTINUOUS
  0
LINE
  8
PEN2
 10
34012
 20
37310
 11
33942
 21
37303
  6
CONTINUOUS
  0
LINE
  8
PEN2
 10
33942
 20
35867
 11
33942
 21
36105
  6
CONTINUOUS
  0
LINE
  8
PEN2
 10
33942
 20
36197
 11
33942
 21
37303
  6
CONTINUOUS
  0
LINE
  8
PEN2
 10
33942
 20
37303
 11
32240
 21
37520
  6
CONTINUOUS
  0
LINE
  8
PEN2
 10
33059
 20
37416
 11
33059
 21
36198
  6
CONTINUOUS
  0
LINE
  8
PEN2
 10
33059
 20
36107
 11
33059
 21
35869
  6
CONTINUOUS
  0
LINE
  8
PEN2
 10
32240
 20
37471
 11
33059
 21
37367
  6
CONTINUOUS
  0
LINE
  8
PEN2
 10
33089
 20
37363
 11
33913
 21
37259
  6
CONTINUOUS
  0
LINE
  8
PEN2
 10
33913
 20
37259
 11
33913
 21
36197
  6
CONTINUOUS
  0
LINE
  8
PEN2
 10
33913
 20
36105
 11
33913
 21
35868
  6
CONTINUOUS
  0
LINE
  8
PEN2
 10
33089
 20
35869
 11
33089
 21
36107
  6
CONTINUOUS
  0
LINE
  8
PEN2
 10
33089
 20
36198
 11
33089
 21
37363
  6
CONTINUOUS
  0
LINE
  8
PEN2
 10
27522
 20
35370
 11
27522
 21
35425
  6
CONTINUOUS
  0
LINE
  8
PEN2
 10
27161
 20
37345
 11
27161
 21
35396
  6
CONTINUOUS
  0
LINE
  8
PEN2
 10
27522
 20
35425
 11
27522
 21
35370
  6
CONTINUOUS
  0
LINE
  8
PEN2
 10
27522
 20
35370
 11
27161
 21
35396
  6
CONTINUOUS
  0
LINE
  8
PEN2
 10
27161
 20
35396
 11
27161
 21
35459
  6
CONTINUOUS
  0
LINE
  8
PEN2
 10
27161
 20
37345
 11
27161
 21
35459
  6
CONTINUOUS
  0
LINE
  8
PEN2
 10
27161
 20
37345
 11
28936
 21
37572
  6
CONTINUOUS
  0
LINE
  8
PEN2
 10
28936
 20
35606
 11
28870
 21
35600
  6
CONTINUOUS
  0
LINE
  8
PEN2
 10
28870
 20
35600
 11
28870
 21
37564
  6
CONTINUOUS
  0
LINE
  8
PEN2
 10
28870
 20
37564
 11
28936
 21
37572
  6
CONTINUOUS
  0
LINE
  8
PEN2
 10
27161
 20
35459
 11
27222
 21
35464
  6
CONTINUOUS
  0
LINE
  8
PEN2
 10
27222
 20
35464
 11
27222
 21
37353
  6
CONTINUOUS
  0
LINE
  8
PEN2
 10
27222
 20
37353
 11
27161
 21
37345
  6
CONTINUOUS
  0
LINE
  8
PEN2
 10
27161
 20
35396
 11
28936
 21
35540
  6
CONTINUOUS
  0
LINE
  8
PEN2
 10
28826
 20
35646
 11
27263
 21
35514
  6
CONTINUOUS
  0
LINE
  8
PEN2
 10
27263
 20
35514
 11
27263
 21
37311
  6
CONTINUOUS
  0
LINE
  8
PEN2
 10
27263
 20
37311
 11
28826
 21
37509
  6
CONTINUOUS
  0
LINE
  8
PEN2
 10
28826
 20
37509
 11
28826
 21
35646
  6
CONTINUOUS
  0
LINE
  8
PEN2
 10
28014
 20
35577
 11
28014
 21
37406
  6
CONTINUOUS
  0
LINE
  8
PEN2
 10
28793
 20
35692
 11
28046
 21
35628
  6
CONTINUOUS
  0
LINE
  8
PEN2
 10
28793
 20
37456
 11
28046
 21
37362
  6
CONTINUOUS
  0
LINE
  8
PEN2
 10
28014
 20
35626
 11
27293
 21
35564
  6
CONTINUOUS
  0
LINE
  8
PEN2
 10
28014
 20
37358
 11
27293
 21
37268
  6
CONTINUOUS
  0
LINE
  8
PEN2
 10
27293
 20
35564
 11
27293
 21
37268
  6
CONTINUOUS
  0
LINE
  8
PEN2
 10
28046
 20
35628
 11
28046
 21
37362
  6
CONTINUOUS
  0
LINE
  8
PEN2
 10
28793
 20
35692
 11
28793
 21
37456
  6
CONTINUOUS
  0
LINE
  8
PEN2
 10
27161
 20
35459
 11
28936
 21
35606
  6
CONTINUOUS
  0
LINE
  8
PEN2
 10
28936
 20
35606
 11
29299
 21
35578
  6
CONTINUOUS
  0
LINE
  8
PEN2
 10
29299
 20
35513
 11
29299
 21
37529
  6
CONTINUOUS
  0
LINE
  8
PEN2
 10
29299
 20
37529
 11
28936
 21
37572
  6
CONTINUOUS
  0
LINE
  8
PEN2
 10
28936
 20
37572
 11
28936
 21
35540
  6
CONTINUOUS
  0
LINE
  8
PEN2
 10
29299
 20
35578
 11
29299
 21
35513
  6
CONTINUOUS
  0
LINE
  8
PEN2
 10
29299
 20
35513
 11
28936
 21
35540
  6
CONTINUOUS
  0
LINE
  8
PEN2
 10
28936
 20
35540
 11
28936
 21
35606
  6
CONTINUOUS
  0
LINE
  8
PEN2
 10
28936
 20
37572
 11
28936
 21
35606
  6
CONTINUOUS
  0
LINE
  8
PEN2
 10
28936
 20
35606
 11
29009
 21
35600
  6
CONTINUOUS
  0
LINE
  8
PEN2
 10
29009
 20
35600
 11
29009
 21
37564
  6
CONTINUOUS
  0
LINE
  8
PEN2
 10
29009
 20
37564
 11
28936
 21
37572
  6
CONTINUOUS
  0
LINE
  8
PEN2
 10
29263
 20
35629
 11
29263
 21
37484
  6
CONTINUOUS
  0
LINE
  8
PEN2
 10
29263
 20
37484
 11
29046
 21
37510
  6
CONTINUOUS
  0
LINE
  8
PEN2
 10
29046
 20
37510
 11
29046
 21
35646
  6
CONTINUOUS
  0
LINE
  8
PEN2
 10
29046
 20
35646
 11
29263
 21
35629
  6
CONTINUOUS
  0
LINE
  8
PEN2
 10
27050
 20
37440
 11
27050
 21
37345
  6
CONTINUOUS
  0
LINE
  8
PEN2
 10
29354
 20
37536
 11
29299
 21
37529
  6
CONTINUOUS
  0
LINE
  8
PEN2
 10
27161
 20
37333
 11
27050
 21
37345
  6
CONTINUOUS
  0
LINE
  8
PEN2
 10
27050
 20
37345
 11
28930
 21
37587
  6
CONTINUOUS
  0
LINE
  8
PEN2
 10
28930
 20
37587
 11
29354
 21
37536
  6
CONTINUOUS
  0
LINE
  8
PEN2
 10
28982
 20
37763
 11
27819
 21
37610
  6
CONTINUOUS
  0
LINE
  8
PEN2
 10
27819
 20
37610
 11
27050
 21
37440
  6
CONTINUOUS
  0
LINE
  8
PEN2
 10
27050
 20
37440
 11
28930
 21
37685
  6
CONTINUOUS
  0
LINE
  8
PEN2
 10
28930
 20
37685
 11
28982
 21
37763
  6
CONTINUOUS
  0
LINE
  8
PEN2
 10
29354
 20
37536
 11
29354
 21
37634
  6
CONTINUOUS
  0
LINE
  8
PEN2
 10
28930
 20
37685
 11
28930
 21
37587
  6
CONTINUOUS
  0
LINE
  8
PEN2
 10
28982
 20
37763
 11
29354
 21
37634
  6
CONTINUOUS
  0
LINE
  8
PEN2
 10
29354
 20
37634
 11
28930
 21
37685
  6
CONTINUOUS
  0
LINE
  8
PEN1
 10
34170
 20
35867
 11
35104
 21
35780
  6
CONTINUOUS
  0
LINE
  8
PEN1
 10
35128
 20
35778
 11
34170
 21
35867
  6
CONTINUOUS
  0
LINE
  8
PEN1
 10
35030
 20
36015
 11
34123
 21
36105
  6
CONTINUOUS
  0
LINE
  8
PEN1
 10
34123
 20
36105
 11
34123
 21
36114
  6
CONTINUOUS
  0
LINE
  8
PEN1
 10
35104
 20
36021
 11
34170
 21
36114
  6
CONTINUOUS
  0
LINE
  8
PEN1
 10
34170
 20
36114
 11
34170
 21
36196
  6
CONTINUOUS
  0
LINE
  8
PEN1
 10
34170
 20
36196
 11
35104
 21
36101
  6
CONTINUOUS
  0
LINE
  8
PEN1
 10
35104
 20
36101
 11
34170
 21
36196
  6
CONTINUOUS
  0
LINE
  8
PEN1
 10
34170
 20
36114
 11
34170
 21
36196
  6
CONTINUOUS
  0
LINE
  8
PEN1
 10
34123
 20
36114
 11
34123
 21
36105
  6
CONTINUOUS
  0
LINE
  8
PEN1
 10
34123
 20
36105
 11
34170
 21
36114
  6
CONTINUOUS
  0
LINE
  8
PEN1
 10
34934
 20
35796
 11
34934
 21
36031
  6
CONTINUOUS
  0
LINE
  8
PEN1
 10
34778
 20
35810
 11
34778
 21
36047
  6
CONTINUOUS
  0
LINE
  8
PEN1
 10
34622
 20
35825
 11
34622
 21
36062
  6
CONTINUOUS
  0
LINE
  8
PEN1
 10
34464
 20
35840
 11
34464
 21
36078
  6
CONTINUOUS
  0
LINE
  8
PEN1
 10
34306
 20
35854
 11
34306
 21
36094
  6
CONTINUOUS
  0
LINE
  8
PEN1
 10
34146
 20
35867
 11
34146
 21
36110
  6
CONTINUOUS
  0
LINE
  8
PEN1
 10
32076
 20
35870
 11
34170
 21
35867
  6
CONTINUOUS
  0
LINE
  8
PEN1
 10
34170
 20
35867
 11
32076
 21
35870
  6
CONTINUOUS
  0
LINE
  8
PEN1
 10
34170
 20
36114
 11
34170
 21
36196
  6
CONTINUOUS
  0
LINE
  8
PEN1
 10
34123
 20
36114
 11
34123
 21
36105
  6
CONTINUOUS
  0
LINE
  8
PEN1
 10
34123
 20
36105
 11
34170
 21
36114
  6
CONTINUOUS
  0
LINE
  8
PEN1
 10
34123
 20
36105
 11
32218
 21
36108
  6
CONTINUOUS
  0
LINE
  8
PEN1
 10
34123
 20
36114
 11
34123
 21
36105
  6
CONTINUOUS
  0
LINE
  8
PEN1
 10
32076
 20
36117
 11
32076
 21
36200
  6
CONTINUOUS
  0
LINE
  8
PEN1
 10
32076
 20
36200
 11
32075
 21
36199
  6
CONTINUOUS
  0
LINE
  8
PEN1
 10
32075
 20
36117
 11
32076
 21
36117
  6
CONTINUOUS
  0
LINE
  8
PEN1
 10
34170
 20
36114
 11
32076
 21
36117
  6
CONTINUOUS
  0
LINE
  8
PEN1
 10
32076
 20
36117
 11
32076
 21
36200
  6
CONTINUOUS
  0
LINE
  8
PEN1
 10
32076
 20
36200
 11
34170
 21
36196
  6
CONTINUOUS
  0
LINE
  8
PEN1
 10
34170
 20
36196
 11
34170
 21
36114
  6
CONTINUOUS
  0
LINE
  8
PEN1
 10
34170
 20
36196
 11
32076
 21
36200
  6
CONTINUOUS
  0
LINE
  8
PEN1
 10
34146
 20
35867
 11
34146
 21
36110
  6
CONTINUOUS
  0
LINE
  8
PEN1
 10
33888
 20
35868
 11
33888
 21
36110
  6
CONTINUOUS
  0
LINE
  8
PEN1
 10
33629
 20
35868
 11
33629
 21
36110
  6
CONTINUOUS
  0
LINE
  8
PEN1
 10
33370
 20
35868
 11
33370
 21
36111
  6
CONTINUOUS
  0
LINE
  8
PEN1
 10
33111
 20
35869
 11
33111
 21
36111
  6
CONTINUOUS
  0
LINE
  8
PEN1
 10
32851
 20
35869
 11
32851
 21
36112
  6
CONTINUOUS
  0
LINE
  8
PEN1
 10
32593
 20
35869
 11
32593
 21
36112
  6
CONTINUOUS
  0
LINE
  8
PEN1
 10
32334
 20
35870
 11
32334
 21
36112
  6
CONTINUOUS
  0
LINE
  8
PEN2
 10
27523
 20
29734
 11
28876
 21
29662
  6
CONTINUOUS
  0
ENDSEC
  0
EOF
